<svg width="512" height="512" viewBox="0 0 512 512" fill="none" xmlns="http://www.w3.org/2000/svg">
<path fill-rule="evenodd" clip-rule="evenodd" d="M296.921 272.483C296.792 270.69 296.72 268.897 296.72 267.163C296.72 258.255 298.354 249.724 301.333 241.827C292.598 241.712 284.212 240.034 276.459 237.055C271.139 235.001 266.134 232.341 261.507 229.159C264.357 240.901 270.386 251.371 278.658 259.642C283.922 264.906 290.081 269.273 296.921 272.483ZM344.57 207.005C332.871 211.661 322.849 219.644 315.678 229.767C314.75 231.097 313.869 232.456 313.032 233.845C318.512 232.919 323.762 231.3 328.663 229.102C336.356 225.661 343.239 220.773 348.981 214.786C347.693 212.067 346.22 209.464 344.57 207.005ZM268.043 181.987C265.441 186.616 263.358 191.59 261.942 196.767C260.466 202.175 259.685 207.902 259.685 213.86V213.946V214.033V214.091V214.179V214.265V214.352V214.439V214.526V214.584V214.67V214.699V214.758V214.844V214.932V215.018V215.077L259.699 215.163V215.251V215.337V215.425V215.482L259.714 215.511V215.568V215.656V215.742V216.06V216.148L259.73 216.292V216.35V216.379C259.772 217.246 259.816 218.143 259.888 218.983C265.499 223.841 271.948 227.746 278.976 230.465C286.164 233.211 294.001 234.715 302.23 234.715C302.981 234.715 303.734 234.715 304.485 234.686C306.077 231.563 307.898 228.555 309.909 225.693C317.5 214.963 327.985 206.402 340.203 201.137C339.033 199.749 337.803 198.419 336.531 197.117L336.343 196.943C324.616 185.23 308.434 178 290.56 178C282.65 177.997 275.058 179.415 268.043 181.987ZM264.312 175.828L264.4 175.799C272.497 172.618 281.334 170.882 290.558 170.882C310.385 170.882 328.373 178.923 341.36 191.909L341.577 192.139C354.837 205.53 362.416 223.606 362.416 242.723C362.416 262.563 354.376 280.553 341.36 293.538C328.374 306.553 310.385 314.593 290.558 314.593C270.733 314.593 252.759 306.553 239.758 293.538C226.743 280.553 218.703 262.562 218.703 242.723C218.703 222.911 226.743 204.952 239.744 191.937C246.685 184.997 255.029 179.473 264.312 175.828ZM340.55 283.88C339.64 284.081 338.729 284.284 337.802 284.458C333.437 285.268 328.952 285.7 324.442 285.7H324.24H324.037H323.835H323.647H323.501H323.442H323.241H323.053H322.849H322.647L322.576 285.672H322.446H322.257H322.069H321.867L321.665 285.644H321.462H321.274L321.086 285.615H320.883H320.738H320.679H320.491L320.29 285.587H320.102L319.898 285.558H319.812H319.697L319.509 285.53H319.321L319.117 285.501H318.915L318.727 285.472H318.539L318.336 285.443H318.134L317.946 285.415H317.758L317.555 285.387L316.977 285.328L316.774 285.299L316.586 285.271H316.398L316.196 285.242H316.18L316.006 285.214L315.818 285.185H315.617L315.283 285.126H315.242L315.038 285.098L314.836 285.069C314.012 284.953 313.173 284.838 312.348 284.693L312.16 284.665L311.972 284.637L311.771 284.608L311.712 284.579H311.582L309.456 284.145L309.282 284.116L308.891 284.029L308.703 283.971L308.5 283.943L308.326 283.885H308.212L308.124 283.856L307.936 283.797L307.748 283.769L307.544 283.711L307.372 283.682L307.343 283.653L307.169 283.624L306.793 283.538L306.605 283.479L306.04 283.334L305.852 283.276L304.767 282.987L304.724 282.959L304.536 282.93L304.362 282.871L304.161 282.814L303.987 282.755L303.915 282.726L303.785 282.698L303.611 282.64L303.423 282.581L302.858 282.408L302.686 282.35L302.483 282.291L302.309 282.234L302.223 282.205L302.121 282.176L301.933 282.117L301.578 281.999L301.39 281.941V281.912L301.216 281.854C290.732 278.297 281.303 272.338 273.624 264.646C261.332 252.354 253.466 235.637 252.657 217.069L252.643 216.955V216.839L252.627 216.724V216.521V216.406V216.29L252.613 216.175V216.059L252.599 215.944V215.857V215.741V215.713V215.626V215.511V215.396V215.28L252.585 215.193V215.078V214.962V214.846L252.569 214.788V214.73V214.615V214.528V214.412V214.297V214.182V214.065V213.979V213.864C252.569 207.356 253.465 200.994 255.115 194.92C255.866 192.144 256.793 189.454 257.847 186.821C253.062 189.628 248.664 193.04 244.776 196.944C233.047 208.658 225.818 224.854 225.818 242.727C225.818 260.6 233.061 276.797 244.776 288.51C256.475 300.223 272.67 307.483 290.557 307.483C308.431 307.483 324.614 300.223 336.34 288.51C337.817 287.032 339.22 285.499 340.55 283.88ZM351.888 221.899C345.974 227.54 339.105 232.196 331.556 235.58C324.585 238.703 317.023 240.757 309.113 241.509C305.716 249.376 303.82 258.052 303.82 267.163C303.82 268.955 303.908 270.72 304.023 272.368L304.341 275.433C308.389 276.735 312.612 277.661 316.98 278.181H316.995H317.153L317.674 278.239L317.82 278.268L318.195 278.297L318.369 278.326H318.543L318.629 278.354H318.715H318.904L319.076 278.382H319.25L319.439 278.411H319.453H319.611L319.785 278.44H319.959L320.133 278.467H320.277H320.307H320.495L320.669 278.496H320.843H321.031L321.103 278.525H321.205H321.379H321.553L321.741 278.554H321.915H321.929H322.103H322.277H322.451L322.639 278.582H322.769H322.827H323.001H323.175H323.349H323.537H323.609H323.724H323.898H324.072H324.26H324.448C328.612 278.582 332.633 278.206 336.509 277.483C340.096 276.819 343.565 275.835 346.949 274.59C352.269 265.192 355.306 254.317 355.306 242.719C355.3 235.435 354.101 228.437 351.888 221.899ZM174.266 170.738L156.84 188.149L191.33 205.241L174.266 170.738ZM28.95 62.1084L36.094 69.2534L55.356 50.0204L48.212 42.8474C46.245 40.8804 43.641 39.8984 41.053 39.8984C38.523 39.8984 35.992 40.8244 34.069 42.6734L28.95 47.7924C26.983 49.7594 26 52.3624 26 54.9664C26 57.5404 26.983 60.1424 28.95 62.1084ZM60.387 55.0224L41.127 74.2854L43.989 77.1474L63.237 57.8854L60.387 55.0224ZM68.269 62.9194L49.021 82.1814C82.976 116.134 116.93 150.089 150.912 184.042L170.144 164.81C136.19 130.827 102.237 96.8724 68.269 62.9194ZM134.86 119.46L177.564 162.148L177.636 162.207L177.694 162.293L177.752 162.352L177.824 162.411L177.882 162.468L177.926 162.497V162.526L177.954 162.555L177.984 162.583C178.274 162.9 178.504 163.248 178.649 163.625L178.677 163.682L202.335 211.489L202.365 211.548L202.379 211.577L202.393 211.635L202.423 211.663L202.451 211.722V211.751L202.467 211.779L202.481 211.808V211.836L202.495 211.865L202.509 211.924L202.539 211.952V212.01L202.567 212.039V212.068V212.097L202.583 212.154H202.597V212.183L202.611 212.242L202.625 212.299V212.328L202.641 212.386L202.655 212.414V212.443V212.502L202.669 212.53L202.683 212.588V212.647V212.676L202.697 212.733V212.762V212.791V212.85V212.878L202.713 212.936V212.995V213.023V213.052V213.08V213.108V213.137V213.195L202.697 213.254V213.282V213.34V213.369V213.398L202.683 213.427V213.455V213.483V213.542L202.669 213.6L202.655 213.629V213.687V213.716L202.641 213.745L202.625 213.803V213.831L202.611 213.86V213.888L202.597 213.946L202.583 214.005L202.567 214.033L202.553 214.091L202.539 214.12V214.149L202.525 214.178V214.206L202.509 214.234L202.495 214.293H202.481L202.467 214.351L202.451 214.38L202.423 214.438L202.409 214.497L202.393 214.525L202.365 214.583L202.335 214.642L202.321 214.669L202.307 214.698L202.277 214.757L202.249 214.785V214.813L202.221 214.872L202.191 214.901L202.163 214.959H202.147L202.105 215.017V215.046L202.061 215.104L202.018 215.162V215.191L201.96 215.25L201.902 215.307L201.844 215.366V215.395L201.786 215.453L201.728 215.511L201.67 215.568L201.612 215.627L201.554 215.685H201.54L201.482 215.743H201.468L201.41 215.802L201.352 215.86H201.338L201.28 215.918H201.266L201.208 215.977L201.15 216.006H201.12L201.062 216.063H201.048L200.99 216.092L200.976 216.121L200.918 216.15H200.888L200.846 216.178L200.802 216.207L200.772 216.235H200.73L200.687 216.264L200.629 216.292H200.615L200.585 216.32H200.543L200.485 216.349L200.455 216.378H200.441H200.398L200.384 216.407H200.34L200.296 216.435H200.282H200.24H200.224L200.196 216.464H200.138L200.094 216.492H200.05L199.992 216.521H199.964H199.934H199.892L199.848 216.55H199.804H199.79H199.732H199.718L199.688 216.579H199.646H199.588H199.558H199.53H199.486H199.472L199.442 216.607H199.384H199.342H199.298H199.24H199.21H199.182H199.138H199.124H199.094H199.038H198.98H198.95H198.936H198.892L198.864 216.579H198.834H198.776H198.732H198.69H198.632L198.602 216.55H198.588H198.544H198.516H198.486L198.428 216.521H198.386H198.342L198.284 216.492H198.256L198.198 216.464H198.168H198.14L198.096 216.435H198.052L198.008 216.407H197.966L197.922 216.378H197.908H197.864L197.836 216.349H197.82L197.762 216.32L197.72 216.292H197.676L197.632 216.264L197.588 216.235L149.724 192.547H149.694L149.652 192.519L149.522 192.461L149.376 192.374L149.144 192.259L149.13 192.231H149.116L149.072 192.202L148.798 191.97H148.782L148.682 191.884L148.638 191.855L148.624 191.826H148.608L148.58 191.797H148.566L148.508 191.74L148.378 191.594L148.247 191.48L148.189 191.392L97.375 140.577V288.715L182.447 373.801H415.222V119.46H134.86ZM485.998 200.353H438.333V412.262H485.998V399.392H462.412C460.459 399.392 458.853 397.802 458.853 395.834C458.853 393.868 460.458 392.277 462.412 392.277H485.998V380.997H472.621C470.668 380.997 469.062 379.407 469.062 377.44C469.062 375.473 470.667 373.883 472.621 373.883H485.998V363.269H462.412C460.459 363.269 458.853 361.678 458.853 359.712C458.853 357.745 460.458 356.153 462.412 356.153H485.998V344.845H472.621C470.668 344.845 469.062 343.254 469.062 341.317C469.062 339.35 470.667 337.759 472.621 337.759H485.998V327.145H462.412C460.459 327.145 458.853 325.554 458.853 323.588C458.853 321.621 460.458 320.029 462.412 320.029H485.998V308.722H472.621C470.668 308.722 469.062 307.13 469.062 305.193C469.062 303.226 470.667 301.635 472.621 301.635H485.998V291.021H462.412C460.459 291.021 458.853 289.431 458.853 287.464C458.853 285.497 460.458 283.906 462.412 283.906H485.998V272.597H472.621C470.668 272.597 469.062 271.006 469.062 269.039C469.062 267.101 470.667 265.482 472.621 265.482H485.998V254.899H462.412C460.459 254.899 458.853 253.28 458.853 251.341C458.853 249.375 460.458 247.784 462.412 247.784H485.998V236.475H472.621C470.668 236.475 469.062 234.884 469.062 232.917C469.062 230.979 470.667 229.36 472.621 229.36H485.998V218.774H462.412C460.459 218.774 458.853 217.155 458.853 215.217C458.853 213.25 460.458 211.658 462.412 211.658H485.998V200.353ZM88.08 329.401L90.524 383.947L145.055 386.377L88.08 329.401ZM83.582 387.477L80.603 320.581C80.517 318.614 82.035 316.966 83.988 316.878C85.015 316.85 85.953 317.255 86.648 317.92L156.552 387.794C157.926 389.183 157.926 391.439 156.552 392.827C155.741 393.636 154.643 393.955 153.602 393.839L86.965 390.86C85.114 390.802 83.668 389.298 83.582 387.477ZM266.655 464.986C268.622 464.986 270.212 466.577 270.212 468.543C270.212 470.481 268.622 472.101 266.655 472.101H76.351C74.386 472.101 72.794 470.482 72.794 468.543C72.794 466.577 74.385 464.986 76.351 464.986H266.655ZM56.874 464.986C58.825 464.986 60.417 466.577 60.417 468.543C60.417 470.481 58.825 472.101 56.874 472.101H33.086C31.119 472.101 29.527 470.482 29.527 468.543C29.527 466.577 31.119 464.986 33.086 464.986H56.874ZM438.522 464.465C440.474 464.465 442.065 466.056 442.065 468.023C442.065 469.99 440.474 471.581 438.522 471.581H348.344C346.393 471.581 344.787 469.99 344.787 468.023C344.787 466.056 346.392 464.465 348.344 464.465H438.522ZM296.04 101.702C294.073 101.702 292.481 100.083 292.481 98.1454C292.481 96.1784 294.073 94.5864 296.04 94.5864H436.338C438.306 94.5864 439.896 96.1784 439.896 98.1454V162.842C439.896 164.809 438.306 166.399 436.338 166.399C434.371 166.399 432.781 164.809 432.781 162.842V101.701L296.04 101.702ZM427.69 448.24C429.643 448.24 431.248 449.831 431.248 451.798C431.248 453.765 429.644 455.356 427.69 455.356H152.676C150.709 455.356 149.119 453.765 149.119 451.798C149.119 449.831 150.709 448.24 152.676 448.24H427.69ZM43.05 244.459L51.046 423.397L229.997 431.409L43.05 244.459Z" fill="#FFBE5F"/>
</svg>
